<svg width="26" height="26" viewBox="0 0 26 26" fill="none" xmlns="http://www.w3.org/2000/svg">
<g id="bxl-github.svg">
<path id="Vector" fill-rule="evenodd" clip-rule="evenodd" d="M13.0282 2.16669C7.06011 2.16669 2.22302 7.00377 2.22302 12.9719C2.22302 17.745 5.31811 21.7956 9.61244 23.2256C10.153 23.3231 10.348 22.9905 10.348 22.7045C10.348 22.4478 10.3394 21.7674 10.3361 20.8672C7.32986 21.5194 6.69502 19.4177 6.69502 19.4177C6.20536 18.1697 5.49577 17.8371 5.49577 17.8371C4.51536 17.1665 5.57052 17.1817 5.57052 17.1817C6.65602 17.2575 7.22477 18.2954 7.22477 18.2954C8.18894 19.9464 9.75544 19.4697 10.3686 19.1934C10.4672 18.4947 10.7489 18.018 11.0565 17.7483C8.65802 17.4764 6.13602 16.549 6.13602 12.4074C6.13602 11.2299 6.55744 10.2635 7.24536 9.50952C7.13594 9.23544 6.76219 8.13586 7.35261 6.64952C7.35261 6.64952 8.25936 6.3581 10.3231 7.75561C11.2045 7.51583 12.1137 7.39344 13.0271 7.3916C13.9406 7.39309 14.8498 7.51548 15.7311 7.75561C17.7959 6.35702 18.7016 6.64952 18.7016 6.64952C19.292 8.13586 18.9215 9.23544 18.8089 9.50952C19.5022 10.2635 19.9182 11.2288 19.9182 12.4074C19.9182 16.5599 17.394 17.472 14.9869 17.7396C15.3714 18.0733 15.7181 18.7319 15.7181 19.7394C15.7181 21.1846 15.7051 22.3503 15.7051 22.7045C15.7051 22.9938 15.8979 23.3296 16.4494 23.2234C20.7415 21.7913 23.8334 17.7439 23.8334 12.9719C23.8334 7.00377 18.9963 2.16669 13.0282 2.16669Z" fill="#D3E97A"/>
</g>
</svg>
